<svg width="36" height="33" viewBox="0 0 36 33" fill="none" xmlns="http://www.w3.org/2000/svg">
<g filter="url(#filter0_d_1_506)">
<path fill-rule="evenodd" clip-rule="evenodd" d="M18 0C26.2845 0 33 6.7155 33 15C33 23.2845 26.2845 30 18 30C9.7155 30 3 23.2845 3 15C3 6.7155 9.7155 0 18 0ZM18 3C14.8174 3 11.7652 4.26428 9.51472 6.51472C7.26428 8.76515 6 11.8174 6 15C6 18.1826 7.26428 21.2348 9.51472 23.4853C11.7652 25.7357 14.8174 27 18 27C21.1826 27 24.2348 25.7357 26.4853 23.4853C28.7357 21.2348 30 18.1826 30 15C30 11.8174 28.7357 8.76515 26.4853 6.51472C24.2348 4.26428 21.1826 3 18 3ZM15.756 7.704L24.756 13.704C24.9681 13.8275 25.1467 14.0012 25.276 14.2099C25.4053 14.4185 25.4815 14.6557 25.4978 14.9007C25.5141 15.1456 25.47 15.3908 25.3694 15.6147C25.2689 15.8386 25.1149 16.0345 24.921 16.185L15.756 22.296C15.528 22.429 15.269 22.4995 15.0051 22.5004C14.7412 22.5013 14.4817 22.4326 14.2528 22.3011C14.024 22.1696 13.8338 21.9801 13.7017 21.7517C13.5695 21.5232 13.4999 21.2639 13.5 21V9C13.4999 8.73607 13.5695 8.47679 13.7017 8.24834C13.8338 8.01989 14.024 7.83037 14.2528 7.6989C14.4817 7.56743 14.7412 7.49867 15.0051 7.49956C15.269 7.50046 15.528 7.57098 15.756 7.704Z" fill="white"/>
</g>
<defs>
<filter id="filter0_d_1_506" x="-1" y="0" width="38" height="38" filterUnits="userSpaceOnUse" color-interpolation-filters="sRGB">
<feFlood flood-opacity="0" result="BackgroundImageFix"/>
<feColorMatrix in="SourceAlpha" type="matrix" values="0 0 0 0 0 0 0 0 0 0 0 0 0 0 0 0 0 0 127 0" result="hardAlpha"/>
<feOffset dy="4"/>
<feGaussianBlur stdDeviation="2"/>
<feComposite in2="hardAlpha" operator="out"/>
<feColorMatrix type="matrix" values="0 0 0 0 0 0 0 0 0 0 0 0 0 0 0 0 0 0 0.25 0"/>
<feBlend mode="normal" in2="BackgroundImageFix" result="effect1_dropShadow_1_506"/>
<feBlend mode="normal" in="SourceGraphic" in2="effect1_dropShadow_1_506" result="shape"/>
</filter>
</defs>
</svg>
